# MagicaVoxel @ Ephtracy

# group
o 

# material
mtllib barco_4vox.mtl
usemtl palette

# normals
vn -1 0 0
vn 1 0 0
vn 0 0 1
vn 0 0 -1
vn 0 -1 0
vn 0 1 0

# texcoords
vt 0.365234 0.5
vt 0.794922 0.5
vt 0.962891 0.5

# verts
v -0.3 0.1 0
v -0.3 0.1 -0.1
v -0.3 0.1 -0.3
v -0.3 0.1 -0.6
v -0.3 0.1 -0.8
v -0.3 0.1 -0.9
v -0.3 0.2 0.1
v -0.3 0.2 0
v -0.3 0.2 -0.1
v -0.3 0.2 -0.3
v -0.3 0.2 -0.6
v -0.3 0.2 -0.8
v -0.3 0.2 -0.9
v -0.3 0.3 0.1
v -0.3 0.3 -0.9
v -0.2 0 0
v -0.2 0 -0.1
v -0.2 0 -0.3
v -0.2 0 -0.6
v -0.2 0 -0.8
v -0.2 0 -0.9
v -0.2 0.1 0.1
v -0.2 0.1 0
v -0.2 0.1 -0.1
v -0.2 0.1 -0.3
v -0.2 0.1 -0.6
v -0.2 0.1 -0.8
v -0.2 0.1 -0.9
v -0.2 0.1 -1
v -0.2 0.2 0.2
v -0.2 0.2 0.1
v -0.2 0.2 0
v -0.2 0.2 -0.9
v -0.2 0.2 -1
v -0.2 0.3 0.2
v -0.2 0.3 0.1
v -0.2 0.3 -0.9
v -0.2 0.3 -1
v -0.1 0 0.1
v -0.1 0 0
v -0.1 0 -0.9
v -0.1 0 -1
v -0.1 0.1 0.2
v -0.1 0.1 0.1
v -0.1 0.1 0
v -0.1 0.1 -0.9
v -0.1 0.1 -1
v -0.1 0.2 0.2
v -0.1 0.2 0.1
v 0 0.2 0.1
v 0 0.2 0
v 0 0.2 -0.8
v 0 0.2 -0.9
v 0 0.3 0.1
v 0 0.3 0
v 0 0.3 -0.8
v 0 0.3 -0.9
v 0.1 0.2 0
v 0.1 0.2 -0.8
v 0.1 0.3 0
v 0.1 0.3 -0.8
v -0.2 0.2 0
v -0.2 0.2 -0.8
v -0.2 0.3 0
v -0.2 0.3 -0.8
v -0.1 0.2 0.1
v -0.1 0.2 0
v -0.1 0.2 -0.8
v -0.1 0.2 -0.9
v -0.1 0.3 0.1
v -0.1 0.3 0
v -0.1 0.3 -0.8
v -0.1 0.3 -0.9
v 0 0 0.1
v 0 0 0
v 0 0 -0.9
v 0 0 -1
v 0 0.1 0.2
v 0 0.1 0.1
v 0 0.1 0
v 0 0.1 -0.9
v 0 0.1 -1
v 0 0.2 0.2
v 0 0.2 0.1
v 0.1 0 0
v 0.1 0 -0.1
v 0.1 0 -0.3
v 0.1 0 -0.6
v 0.1 0 -0.8
v 0.1 0 -0.9
v 0.1 0.1 0.1
v 0.1 0.1 0
v 0.1 0.1 -0.1
v 0.1 0.1 -0.3
v 0.1 0.1 -0.6
v 0.1 0.1 -0.8
v 0.1 0.1 -0.9
v 0.1 0.1 -1
v 0.1 0.2 0.2
v 0.1 0.2 0.1
v 0.1 0.2 0
v 0.1 0.2 -0.9
v 0.1 0.2 -1
v 0.1 0.3 0.2
v 0.1 0.3 0.1
v 0.1 0.3 -0.9
v 0.1 0.3 -1
v 0.2 0.1 0
v 0.2 0.1 -0.1
v 0.2 0.1 -0.3
v 0.2 0.1 -0.6
v 0.2 0.1 -0.8
v 0.2 0.1 -0.9
v 0.2 0.2 0.1
v 0.2 0.2 0
v 0.2 0.2 -0.1
v 0.2 0.2 -0.3
v 0.2 0.2 -0.6
v 0.2 0.2 -0.8
v 0.2 0.2 -0.9
v 0.2 0.3 0.1
v 0.2 0.3 -0.9
v -0.2 0.2 0.2
v -0.2 0.3 0.2
v -0.1 0.1 0.2
v -0.1 0.2 0.2
v 0 0.1 0.2
v 0 0.2 0.2
v 0.1 0.2 0.2
v 0.1 0.3 0.2
v -0.3 0.2 0.1
v -0.3 0.3 0.1
v -0.2 0.1 0.1
v -0.2 0.2 0.1
v -0.2 0.3 0.1
v -0.1 0 0.1
v -0.1 0.1 0.1
v -0.1 0.2 0.1
v 0 0 0.1
v 0 0.1 0.1
v 0 0.2 0.1
v 0.1 0.1 0.1
v 0.1 0.2 0.1
v 0.1 0.3 0.1
v 0.2 0.2 0.1
v 0.2 0.3 0.1
v -0.3 0.1 0
v -0.3 0.2 0
v -0.2 0 0
v -0.2 0.1 0
v -0.2 0.2 0
v -0.1 0 0
v -0.1 0.1 0
v 0 0 0
v 0 0.1 0
v 0.1 0 0
v 0.1 0.1 0
v 0.1 0.2 0
v 0.2 0.1 0
v 0.2 0.2 0
v -0.2 0.2 -0.8
v -0.2 0.3 -0.8
v -0.1 0.2 -0.8
v -0.1 0.3 -0.8
v 0 0.2 -0.8
v 0 0.3 -0.8
v 0.1 0.2 -0.8
v 0.1 0.3 -0.8
v -0.1 0.2 -0.9
v -0.1 0.3 -0.9
v 0 0.2 -0.9
v 0 0.3 -0.9
v -0.1 0.2 0.1
v -0.1 0.3 0.1
v 0 0.2 0.1
v 0 0.3 0.1
v -0.2 0.2 0
v -0.2 0.3 0
v -0.1 0.2 0
v -0.1 0.3 0
v 0 0.2 0
v 0 0.3 0
v 0.1 0.2 0
v 0.1 0.3 0
v -0.3 0.1 -0.9
v -0.3 0.2 -0.9
v -0.3 0.3 -0.9
v -0.2 0 -0.9
v -0.2 0.1 -0.9
v -0.2 0.2 -0.9
v -0.2 0.3 -0.9
v -0.1 0 -0.9
v -0.1 0.1 -0.9
v 0 0 -0.9
v 0 0.1 -0.9
v 0.1 0 -0.9
v 0.1 0.1 -0.9
v 0.1 0.2 -0.9
v 0.1 0.3 -0.9
v 0.2 0.1 -0.9
v 0.2 0.2 -0.9
v 0.2 0.3 -0.9
v -0.2 0.1 -1
v -0.2 0.2 -1
v -0.2 0.3 -1
v -0.1 0 -1
v -0.1 0.1 -1
v 0 0 -1
v 0 0.1 -1
v 0.1 0.1 -1
v 0.1 0.2 -1
v 0.1 0.3 -1
v -0.1 0 0.1
v 0 0 0.1
v -0.2 0 0
v -0.1 0 0
v 0 0 0
v 0.1 0 0
v -0.2 0 -0.1
v 0.1 0 -0.1
v -0.2 0 -0.3
v 0.1 0 -0.3
v -0.2 0 -0.6
v 0.1 0 -0.6
v -0.2 0 -0.8
v 0.1 0 -0.8
v -0.2 0 -0.9
v -0.1 0 -0.9
v 0 0 -0.9
v 0.1 0 -0.9
v -0.1 0 -1
v 0 0 -1
v -0.1 0.1 0.2
v 0 0.1 0.2
v -0.2 0.1 0.1
v -0.1 0.1 0.1
v 0 0.1 0.1
v 0.1 0.1 0.1
v -0.3 0.1 0
v -0.2 0.1 0
v -0.1 0.1 0
v 0 0.1 0
v 0.1 0.1 0
v 0.2 0.1 0
v -0.3 0.1 -0.1
v -0.2 0.1 -0.1
v 0.1 0.1 -0.1
v 0.2 0.1 -0.1
v -0.3 0.1 -0.3
v -0.2 0.1 -0.3
v 0.1 0.1 -0.3
v 0.2 0.1 -0.3
v -0.3 0.1 -0.6
v -0.2 0.1 -0.6
v 0.1 0.1 -0.6
v 0.2 0.1 -0.6
v -0.3 0.1 -0.8
v -0.2 0.1 -0.8
v 0.1 0.1 -0.8
v 0.2 0.1 -0.8
v -0.3 0.1 -0.9
v -0.2 0.1 -0.9
v -0.1 0.1 -0.9
v 0 0.1 -0.9
v 0.1 0.1 -0.9
v 0.2 0.1 -0.9
v -0.2 0.1 -1
v -0.1 0.1 -1
v 0 0.1 -1
v 0.1 0.1 -1
v -0.2 0.2 0.2
v -0.1 0.2 0.2
v 0 0.2 0.2
v 0.1 0.2 0.2
v -0.3 0.2 0.1
v -0.2 0.2 0.1
v -0.1 0.2 0.1
v 0 0.2 0.1
v 0.1 0.2 0.1
v 0.2 0.2 0.1
v -0.3 0.2 0
v -0.2 0.2 0
v 0.1 0.2 0
v 0.2 0.2 0
v -0.1 0.2 0.1
v 0 0.2 0.1
v -0.2 0.2 0
v -0.1 0.2 0
v 0 0.2 0
v 0.1 0.2 0
v -0.2 0.2 -0.8
v -0.1 0.2 -0.8
v 0 0.2 -0.8
v 0.1 0.2 -0.8
v -0.1 0.2 -0.9
v 0 0.2 -0.9
v -0.2 0.3 0.2
v 0.1 0.3 0.2
v -0.3 0.3 0.1
v -0.2 0.3 0.1
v -0.1 0.3 0.1
v 0 0.3 0.1
v 0.1 0.3 0.1
v 0.2 0.3 0.1
v -0.2 0.3 0
v -0.1 0.3 0
v 0 0.3 0
v 0.1 0.3 0
v -0.2 0.3 -0.8
v -0.1 0.3 -0.8
v 0 0.3 -0.8
v 0.1 0.3 -0.8
v -0.3 0.3 -0.9
v -0.2 0.3 -0.9
v -0.1 0.3 -0.9
v 0 0.3 -0.9
v 0.1 0.3 -0.9
v 0.2 0.3 -0.9
v -0.2 0.3 -1
v 0.1 0.3 -1

# faces
f 8/1/1 2/1/1 1/1/1
f 9/3/1 3/3/1 2/3/1
f 9/1/1 2/1/1 8/1/1
f 10/1/1 4/1/1 3/1/1
f 10/3/1 3/3/1 9/3/1
f 11/3/1 5/3/1 4/3/1
f 11/1/1 4/1/1 10/1/1
f 12/1/1 6/1/1 5/1/1
f 12/3/1 5/3/1 11/3/1
f 13/1/1 6/1/1 12/1/1
f 14/2/1 11/2/1 10/2/1
f 14/2/1 8/2/1 7/2/1
f 14/2/1 13/2/1 12/2/1
f 14/2/1 12/2/1 11/2/1
f 14/2/1 9/2/1 8/2/1
f 14/2/1 10/2/1 9/2/1
f 15/2/1 13/2/1 14/2/1
f 23/1/1 17/1/1 16/1/1
f 24/3/1 18/3/1 17/3/1
f 24/1/1 17/1/1 23/1/1
f 25/1/1 19/1/1 18/1/1
f 25/3/1 18/3/1 24/3/1
f 26/3/1 20/3/1 19/3/1
f 26/1/1 19/1/1 25/1/1
f 27/1/1 21/1/1 20/1/1
f 27/3/1 20/3/1 26/3/1
f 28/1/1 21/1/1 27/1/1
f 31/1/1 23/1/1 22/1/1
f 32/1/1 23/1/1 31/1/1
f 33/1/1 29/1/1 28/1/1
f 34/1/1 29/1/1 33/1/1
f 35/2/1 31/2/1 30/2/1
f 36/2/1 31/2/1 35/2/1
f 37/2/1 34/2/1 33/2/1
f 38/2/1 34/2/1 37/2/1
f 44/1/1 40/1/1 39/1/1
f 45/1/1 40/1/1 44/1/1
f 46/1/1 42/1/1 41/1/1
f 47/1/1 42/1/1 46/1/1
f 48/1/1 44/1/1 43/1/1
f 49/1/1 44/1/1 48/1/1
f 54/2/1 51/2/1 50/2/1
f 55/2/1 51/2/1 54/2/1
f 56/2/1 53/2/1 52/2/1
f 57/2/1 53/2/1 56/2/1
f 60/2/1 59/2/1 58/2/1
f 61/2/1 59/2/1 60/2/1
f 62/2/2 63/2/2 64/2/2
f 64/2/2 63/2/2 65/2/2
f 66/2/2 67/2/2 70/2/2
f 70/2/2 67/2/2 71/2/2
f 68/2/2 69/2/2 72/2/2
f 72/2/2 69/2/2 73/2/2
f 74/1/2 75/1/2 79/1/2
f 79/1/2 75/1/2 80/1/2
f 76/1/2 77/1/2 81/1/2
f 81/1/2 77/1/2 82/1/2
f 78/1/2 79/1/2 83/1/2
f 83/1/2 79/1/2 84/1/2
f 85/1/2 86/1/2 92/1/2
f 86/3/2 87/3/2 93/3/2
f 92/1/2 86/1/2 93/1/2
f 87/1/2 88/1/2 94/1/2
f 93/3/2 87/3/2 94/3/2
f 88/3/2 89/3/2 95/3/2
f 94/1/2 88/1/2 95/1/2
f 89/1/2 90/1/2 96/1/2
f 95/3/2 89/3/2 96/3/2
f 96/1/2 90/1/2 97/1/2
f 91/1/2 92/1/2 100/1/2
f 100/1/2 92/1/2 101/1/2
f 97/1/2 98/1/2 102/1/2
f 102/1/2 98/1/2 103/1/2
f 99/2/2 100/2/2 104/2/2
f 104/2/2 100/2/2 105/2/2
f 102/2/2 103/2/2 106/2/2
f 106/2/2 103/2/2 107/2/2
f 108/1/2 109/1/2 115/1/2
f 109/3/2 110/3/2 116/3/2
f 115/1/2 109/1/2 116/1/2
f 110/1/2 111/1/2 117/1/2
f 116/3/2 110/3/2 117/3/2
f 111/3/2 112/3/2 118/3/2
f 117/1/2 111/1/2 118/1/2
f 112/1/2 113/1/2 119/1/2
f 118/3/2 112/3/2 119/3/2
f 119/1/2 113/1/2 120/1/2
f 117/2/2 118/2/2 121/2/2
f 114/2/2 115/2/2 121/2/2
f 119/2/2 120/2/2 121/2/2
f 118/2/2 119/2/2 121/2/2
f 115/2/2 116/2/2 121/2/2
f 116/2/2 117/2/2 121/2/2
f 121/2/2 120/2/2 122/2/2
f 126/2/3 124/2/3 123/2/3
f 127/1/3 126/1/3 125/1/3
f 128/2/3 124/2/3 126/2/3
f 128/1/3 126/1/3 127/1/3
f 129/2/3 124/2/3 128/2/3
f 130/2/3 124/2/3 129/2/3
f 134/2/3 132/2/3 131/2/3
f 135/2/3 132/2/3 134/2/3
f 137/1/3 134/1/3 133/1/3
f 138/1/3 134/1/3 137/1/3
f 139/1/3 137/1/3 136/1/3
f 140/1/3 137/1/3 139/1/3
f 142/1/3 141/1/3 140/1/3
f 143/1/3 141/1/3 142/1/3
f 145/2/3 144/2/3 143/2/3
f 146/2/3 144/2/3 145/2/3
f 150/1/3 148/1/3 147/1/3
f 151/1/3 148/1/3 150/1/3
f 152/1/3 150/1/3 149/1/3
f 153/1/3 150/1/3 152/1/3
f 156/1/3 155/1/3 154/1/3
f 157/1/3 155/1/3 156/1/3
f 159/1/3 158/1/3 157/1/3
f 160/1/3 158/1/3 159/1/3
f 163/2/3 162/2/3 161/2/3
f 164/2/3 162/2/3 163/2/3
f 167/2/3 166/2/3 165/2/3
f 168/2/3 166/2/3 167/2/3
f 171/2/3 170/2/3 169/2/3
f 172/2/3 170/2/3 171/2/3
f 173/2/4 174/2/4 175/2/4
f 175/2/4 174/2/4 176/2/4
f 177/2/4 178/2/4 179/2/4
f 179/2/4 178/2/4 180/2/4
f 181/2/4 182/2/4 183/2/4
f 183/2/4 182/2/4 184/2/4
f 185/1/4 186/1/4 189/1/4
f 186/2/4 187/2/4 190/2/4
f 189/1/4 186/1/4 190/1/4
f 190/2/4 187/2/4 191/2/4
f 188/1/4 189/1/4 192/1/4
f 192/1/4 189/1/4 193/1/4
f 194/1/4 195/1/4 196/1/4
f 196/1/4 195/1/4 197/1/4
f 197/1/4 198/1/4 200/1/4
f 198/2/4 199/2/4 201/2/4
f 200/1/4 198/1/4 201/1/4
f 201/2/4 199/2/4 202/2/4
f 203/1/4 204/1/4 207/1/4
f 206/1/4 207/1/4 208/1/4
f 207/1/4 204/1/4 209/1/4
f 208/1/4 207/1/4 209/1/4
f 209/1/4 204/1/4 210/1/4
f 204/2/4 205/2/4 211/2/4
f 210/1/4 204/1/4 211/1/4
f 211/2/4 205/2/4 212/2/4
f 216/1/5 214/1/5 213/1/5
f 217/1/5 214/1/5 216/1/5
f 219/1/5 216/1/5 215/1/5
f 219/1/5 218/1/5 217/1/5
f 219/1/5 217/1/5 216/1/5
f 220/1/5 218/1/5 219/1/5
f 221/3/5 220/3/5 219/3/5
f 222/3/5 220/3/5 221/3/5
f 223/1/5 222/1/5 221/1/5
f 224/1/5 222/1/5 223/1/5
f 225/3/5 224/3/5 223/3/5
f 226/3/5 224/3/5 225/3/5
f 227/1/5 226/1/5 225/1/5
f 228/1/5 226/1/5 227/1/5
f 229/1/5 226/1/5 228/1/5
f 230/1/5 226/1/5 229/1/5
f 231/1/5 229/1/5 228/1/5
f 232/1/5 229/1/5 231/1/5
f 236/1/5 234/1/5 233/1/5
f 237/1/5 234/1/5 236/1/5
f 240/1/5 236/1/5 235/1/5
f 241/1/5 236/1/5 240/1/5
f 242/1/5 238/1/5 237/1/5
f 243/1/5 238/1/5 242/1/5
f 245/1/5 240/1/5 239/1/5
f 246/1/5 240/1/5 245/1/5
f 247/1/5 244/1/5 243/1/5
f 248/1/5 244/1/5 247/1/5
f 249/3/5 246/3/5 245/3/5
f 250/3/5 246/3/5 249/3/5
f 251/3/5 248/3/5 247/3/5
f 252/3/5 248/3/5 251/3/5
f 253/1/5 250/1/5 249/1/5
f 254/1/5 250/1/5 253/1/5
f 255/1/5 252/1/5 251/1/5
f 256/1/5 252/1/5 255/1/5
f 257/3/5 254/3/5 253/3/5
f 258/3/5 254/3/5 257/3/5
f 259/3/5 256/3/5 255/3/5
f 260/3/5 256/3/5 259/3/5
f 261/1/5 258/1/5 257/1/5
f 262/1/5 258/1/5 261/1/5
f 265/1/5 260/1/5 259/1/5
f 266/1/5 260/1/5 265/1/5
f 267/1/5 263/1/5 262/1/5
f 268/1/5 263/1/5 267/1/5
f 269/1/5 265/1/5 264/1/5
f 270/1/5 265/1/5 269/1/5
f 276/2/5 272/2/5 271/2/5
f 277/2/5 272/2/5 276/2/5
f 278/2/5 274/2/5 273/2/5
f 279/2/5 274/2/5 278/2/5
f 281/2/5 276/2/5 275/2/5
f 282/2/5 276/2/5 281/2/5
f 283/2/5 280/2/5 279/2/5
f 284/2/5 280/2/5 283/2/5
f 285/2/6 286/2/6 288/2/6
f 288/2/6 286/2/6 289/2/6
f 287/2/6 288/2/6 291/2/6
f 289/2/6 290/2/6 291/2/6
f 288/2/6 289/2/6 291/2/6
f 291/2/6 290/2/6 292/2/6
f 292/2/6 290/2/6 293/2/6
f 293/2/6 290/2/6 294/2/6
f 292/2/6 293/2/6 295/2/6
f 295/2/6 293/2/6 296/2/6
f 297/2/6 298/2/6 300/2/6
f 300/2/6 298/2/6 301/2/6
f 301/2/6 298/2/6 302/2/6
f 302/2/6 298/2/6 303/2/6
f 299/2/6 300/2/6 305/2/6
f 300/2/6 301/2/6 305/2/6
f 305/2/6 301/2/6 306/2/6
f 303/2/6 304/2/6 307/2/6
f 302/2/6 303/2/6 307/2/6
f 307/2/6 304/2/6 308/2/6
f 299/2/6 305/2/6 309/2/6
f 308/2/6 304/2/6 312/2/6
f 309/2/6 310/2/6 313/2/6
f 299/2/6 309/2/6 313/2/6
f 313/2/6 310/2/6 314/2/6
f 314/2/6 310/2/6 315/2/6
f 311/2/6 312/2/6 316/2/6
f 312/2/6 304/2/6 317/2/6
f 316/2/6 312/2/6 317/2/6
f 317/2/6 304/2/6 318/2/6
f 314/2/6 315/2/6 319/2/6
f 315/2/6 316/2/6 319/2/6
f 316/2/6 317/2/6 319/2/6
f 319/2/6 317/2/6 320/2/6
