# MagicaVoxel @ Ephtracy

# group
o 

# material
mtllib casa_7.mtl
usemtl palette

# normals
vn -1 0 0
vn 1 0 0
vn 0 0 1
vn 0 0 -1
vn 0 -1 0
vn 0 1 0

# texcoords
vt 0.00585938 0.5
vt 0.0917969 0.5
vt 0.255859 0.5
vt 0.396484 0.5
vt 0.705078 0.5
vt 0.900391 0.5
vt 0.958984 0.5
vt 0.990234 0.5

# verts
v -1.8 0.9 0.1
v -1.8 0.9 -1.2
v -1.8 1 0.1
v -1.8 1 -1.2
v -1.7 1 0.1
v -1.7 1 -1.2
v -1.7 1.1 0.1
v -1.7 1.1 -1.2
v -1.6 0 0
v -1.6 0 -1.2
v -1.6 0.3 0
v -1.6 0.3 -1.2
v -1.6 0.5 0
v -1.6 0.5 -1.2
v -1.6 0.7 0
v -1.6 0.7 -1.2
v -1.6 0.9 0
v -1.6 0.9 -1.2
v -1.6 1.1 0.1
v -1.6 1.1 -1.2
v -1.6 1.2 0.1
v -1.6 1.2 -1.2
v -1.5 1.2 0.1
v -1.5 1.2 -1.2
v -1.5 1.3 0.1
v -1.5 1.3 -1.2
v -1.4 0 0.1
v -1.4 0 0
v -1.4 0.3 0
v -1.4 0.5 0.1
v -1.4 0.5 0
v -1.4 0.8 0.1
v -1.4 0.8 0
v -1.4 1 0.1
v -1.4 1 0
v -1.4 1.3 0.1
v -1.4 1.3 -1.2
v -1.4 1.4 0.1
v -1.4 1.4 -1.2
v -1.3 0.5 0.1
v -1.3 0.5 0
v -1.3 0.6 0.1
v -1.3 0.6 0
v -1.3 0.7 0.1
v -1.3 0.7 0
v -1.3 0.8 0.1
v -1.3 0.8 0
v -1.3 1 0.1
v -1.3 1 0
v -1.3 1.1 0.1
v -1.3 1.1 0
v -1.2 0.2 0.1
v -1.2 0.2 0
v -1.2 0.3 0.1
v -1.2 0.3 0
v -1.1 0 0.1
v -1.1 0 0
v -1.1 0.2 0.1
v -1.1 0.2 0
v -1.1 0.3 0.1
v -1.1 0.3 0
v -1.1 0.5 0.1
v -1.1 0.5 0
v -1.1 0.8 0.1
v -1.1 0.8 0
v -1.1 0.9 0
v -1.1 1 0.1
v -1.1 1 0
v -0.1 0.8 0.1
v -0.1 0.8 0
v -0.1 1 0.1
v -0.1 1 0
v -1.19209e-07 0.7 0.1
v -1.19209e-07 0.7 0
v -1.19209e-07 0.8 0.1
v -1.19209e-07 0.8 0
v -1.19209e-07 1 0.1
v -1.19209e-07 1 0
v -1.19209e-07 1.1 0.1
v -1.19209e-07 1.1 0
v 0.3 0.8 0.1
v 0.3 0.8 0
v 0.3 0.9 0
v 0.3 1 0.1
v 0.3 1 0
v 0.6 0.8 0.1
v 0.6 0.8 0
v 0.6 1 0.1
v 0.6 1 0
v 0.7 0.7 0.1
v 0.7 0.7 0
v 0.7 0.8 0.1
v 0.7 0.8 0
v 0.7 1 0.1
v 0.7 1 0
v 0.7 1.1 0.1
v 0.7 1.1 0
v 0.9 0.8 0.1
v 0.9 0.8 0
v 0.9 0.9 0
v 0.9 1 0.1
v 0.9 1 0
v 1 1.1 0.1
v 1 1.1 0
v 1 1.2 0.1
v 1 1.2 0
v 1.1 1 0.1
v 1.1 1 0
v 1.1 1.1 0.1
v 1.1 1.1 0
v 1.2 0.9 0.1
v 1.2 0.9 0
v 1.2 1 0.1
v 1.2 1 0
v -1.6 0.9 0.1
v -1.6 0.9 0
v -1.6 1 0.1
v -1.6 1 0
v -1.5 1 0.1
v -1.5 1 0
v -1.5 1.1 0.1
v -1.5 1.1 0
v -1.4 1.1 0.1
v -1.4 1.1 0
v -1.4 1.2 0.1
v -1.4 1.2 0
v -1.3 0 0.1
v -1.3 0 0
v -1.3 0.5 0.1
v -1.3 0.5 0
v -1.3 0.8 0.1
v -1.3 0.8 0
v -1.3 0.9 0
v -1.3 1 0.1
v -1.3 1 0
v -1.1 0.5 0.1
v -1.1 0.5 0
v -1.1 0.6 0.1
v -1.1 0.6 0
v -1.1 0.7 0.1
v -1.1 0.7 0
v -1.1 0.8 0.1
v -1.1 0.8 0
v -1.1 1 0.1
v -1.1 1 0
v -1.1 1.1 0.1
v -1.1 1.1 0
v -1 0 0.1
v -1 0 0
v -1 0.3 0
v -1 0.5 0.1
v -1 0.5 0
v -1 0.8 0.1
v -1 0.8 0
v -1 1 0.1
v -1 1 0
v -1.19209e-07 0.8 0.1
v -1.19209e-07 0.8 0
v -1.19209e-07 0.9 0
v -1.19209e-07 1 0.1
v -1.19209e-07 1 0
v 0.3 0.7 0.1
v 0.3 0.7 0
v 0.3 0.8 0.1
v 0.3 0.8 0
v 0.3 1 0.1
v 0.3 1 0
v 0.3 1.1 0.1
v 0.3 1.1 0
v 0.4 0.8 0.1
v 0.4 0.8 0
v 0.4 1 0.1
v 0.4 1 0
v 0.7 0.8 0.1
v 0.7 0.8 0
v 0.7 0.9 0
v 0.7 1 0.1
v 0.7 1 0
v 0.9 0.7 0.1
v 0.9 0.7 0
v 0.9 0.8 0.1
v 0.9 0.8 0
v 0.9 1 0.1
v 0.9 1 0
v 0.9 1.1 0.1
v 0.9 1.1 0
v 1 0.8 0.1
v 1 0.8 0
v 1 1 0.1
v 1 1 0
v 1 1.3 0.1
v 1 1.3 -1.2
v 1 1.4 0.1
v 1 1.4 -1.2
v 1.1 1.2 0.1
v 1.1 1.2 -1.2
v 1.1 1.3 0.1
v 1.1 1.3 -1.2
v 1.2 0 0
v 1.2 0 -1.2
v 1.2 0.3 0
v 1.2 0.3 -1.2
v 1.2 0.5 0
v 1.2 0.5 -1.2
v 1.2 0.7 0
v 1.2 0.7 -1.2
v 1.2 0.9 0
v 1.2 0.9 -1.2
v 1.2 1.1 0.1
v 1.2 1.1 -1.2
v 1.2 1.2 0.1
v 1.2 1.2 -1.2
v 1.3 1 0.1
v 1.3 1 -1.2
v 1.3 1.1 0.1
v 1.3 1.1 -1.2
v 1.4 0.9 0.1
v 1.4 0.9 -1.2
v 1.4 1 0.1
v 1.4 1 -1.2
v -1.8 0.9 0.1
v -1.8 1 0.1
v -1.7 0.9 0.1
v -1.7 1 0.1
v -1.7 1.1 0.1
v -1.6 0.9 0.1
v -1.6 1 0.1
v -1.6 1.1 0.1
v -1.6 1.2 0.1
v -1.5 1 0.1
v -1.5 1.1 0.1
v -1.5 1.2 0.1
v -1.5 1.3 0.1
v -1.4 0 0.1
v -1.4 0.5 0.1
v -1.4 0.8 0.1
v -1.4 1 0.1
v -1.4 1.1 0.1
v -1.4 1.2 0.1
v -1.4 1.3 0.1
v -1.4 1.4 0.1
v -1.3 0 0.1
v -1.3 0.5 0.1
v -1.3 0.6 0.1
v -1.3 0.7 0.1
v -1.3 0.8 0.1
v -1.3 1 0.1
v -1.3 1.1 0.1
v -1.2 0.2 0.1
v -1.2 0.3 0.1
v -1.1 0 0.1
v -1.1 0.2 0.1
v -1.1 0.3 0.1
v -1.1 0.5 0.1
v -1.1 0.6 0.1
v -1.1 0.7 0.1
v -1.1 0.8 0.1
v -1.1 1 0.1
v -1.1 1.1 0.1
v -1 0 0.1
v -1 0.5 0.1
v -1 0.8 0.1
v -1 1 0.1
v -0.1 0.8 0.1
v -0.1 1 0.1
v -1.19209e-07 0.7 0.1
v -1.19209e-07 0.8 0.1
v -1.19209e-07 1 0.1
v -1.19209e-07 1.1 0.1
v 0.3 0.7 0.1
v 0.3 0.8 0.1
v 0.3 1 0.1
v 0.3 1.1 0.1
v 0.4 0.8 0.1
v 0.4 1 0.1
v 0.6 0.8 0.1
v 0.6 1 0.1
v 0.7 0.7 0.1
v 0.7 0.8 0.1
v 0.7 1 0.1
v 0.7 1.1 0.1
v 0.9 0.7 0.1
v 0.9 0.8 0.1
v 0.9 1 0.1
v 0.9 1.1 0.1
v 1 0.8 0.1
v 1 1 0.1
v 1 1.1 0.1
v 1 1.2 0.1
v 1 1.3 0.1
v 1 1.4 0.1
v 1.1 1 0.1
v 1.1 1.1 0.1
v 1.1 1.2 0.1
v 1.1 1.3 0.1
v 1.2 0.9 0.1
v 1.2 1 0.1
v 1.2 1.1 0.1
v 1.2 1.2 0.1
v 1.3 0.9 0.1
v 1.3 1 0.1
v 1.3 1.1 0.1
v 1.4 0.9 0.1
v 1.4 1 0.1
v -1.6 0 0
v -1.6 0.3 0
v -1.6 0.5 0
v -1.6 0.7 0
v -1.6 0.9 0
v -1.6 1 0
v -1.5 1 0
v -1.5 1.1 0
v -1.4 0 0
v -1.4 0.3 0
v -1.4 0.5 0
v -1.4 0.8 0
v -1.4 1 0
v -1.4 1.1 0
v -1.4 1.2 0
v -1.3 0 0
v -1.3 0.5 0
v -1.3 0.6 0
v -1.3 0.7 0
v -1.3 0.8 0
v -1.3 0.9 0
v -1.3 1 0
v -1.3 1.1 0
v -1.2 0.2 0
v -1.2 0.3 0
v -1.2 0.8 0
v -1.2 0.9 0
v -1.2 1 0
v -1.1 0 0
v -1.1 0.2 0
v -1.1 0.3 0
v -1.1 0.5 0
v -1.1 0.6 0
v -1.1 0.7 0
v -1.1 0.8 0
v -1.1 0.9 0
v -1.1 1 0
v -1.1 1.1 0
v -1 0 0
v -1 0.3 0
v -1 0.5 0
v -1 0.8 0
v -1 1 0
v -0.1 0.8 0
v -0.1 1 0
v -1.19209e-07 0.7 0
v -1.19209e-07 0.8 0
v -1.19209e-07 0.9 0
v -1.19209e-07 1 0
v -1.19209e-07 1.1 0
v 0.0999999 0.8 0
v 0.0999999 0.9 0
v 0.0999999 1 0
v 0.2 0.8 0
v 0.2 0.9 0
v 0.2 1 0
v 0.3 0.7 0
v 0.3 0.8 0
v 0.3 0.9 0
v 0.3 1 0
v 0.3 1.1 0
v 0.4 0.8 0
v 0.4 1 0
v 0.6 0.8 0
v 0.6 1 0
v 0.7 0.7 0
v 0.7 0.8 0
v 0.7 0.9 0
v 0.7 1 0
v 0.7 1.1 0
v 0.8 0.8 0
v 0.8 0.9 0
v 0.8 1 0
v 0.9 0.7 0
v 0.9 0.8 0
v 0.9 0.9 0
v 0.9 1 0
v 0.9 1.1 0
v 1 0.8 0
v 1 1 0
v 1 1.1 0
v 1 1.2 0
v 1.1 1 0
v 1.1 1.1 0
v 1.2 0 0
v 1.2 0.3 0
v 1.2 0.5 0
v 1.2 0.7 0
v 1.2 0.9 0
v 1.2 1 0
v -1.8 0.9 -1.2
v -1.8 1 -1.2
v -1.7 0.9 -1.2
v -1.7 1 -1.2
v -1.7 1.1 -1.2
v -1.6 0 -1.2
v -1.6 0.3 -1.2
v -1.6 0.5 -1.2
v -1.6 0.7 -1.2
v -1.6 0.9 -1.2
v -1.6 1 -1.2
v -1.6 1.1 -1.2
v -1.6 1.2 -1.2
v -1.5 1.1 -1.2
v -1.5 1.2 -1.2
v -1.5 1.3 -1.2
v -1.4 1.2 -1.2
v -1.4 1.3 -1.2
v -1.4 1.4 -1.2
v 1 1.1 -1.2
v 1 1.3 -1.2
v 1 1.4 -1.2
v 1.1 1 -1.2
v 1.1 1.1 -1.2
v 1.1 1.2 -1.2
v 1.1 1.3 -1.2
v 1.2 0 -1.2
v 1.2 0.3 -1.2
v 1.2 0.5 -1.2
v 1.2 0.7 -1.2
v 1.2 0.9 -1.2
v 1.2 1 -1.2
v 1.2 1.1 -1.2
v 1.2 1.2 -1.2
v 1.3 0.9 -1.2
v 1.3 1 -1.2
v 1.3 1.1 -1.2
v 1.4 0.9 -1.2
v 1.4 1 -1.2
v -1.4 0 0.1
v -1.3 0 0.1
v -1.1 0 0.1
v -1 0 0.1
v -1.6 0 0
v -1.4 0 0
v -1.3 0 0
v -1.1 0 0
v -1 0 0
v 1.2 0 0
v -1.5 0 -0.1
v -1.4 0 -0.1
v -1.3 0 -0.1
v -1.1 0 -0.1
v -1 0 -0.1
v 1.1 0 -0.1
v -1.5 0 -1.1
v 1.1 0 -1.1
v -1.6 0 -1.2
v 1.2 0 -1.2
v -1.2 0.2 0.1
v -1.1 0.2 0.1
v -1.2 0.2 0
v -1.1 0.2 0
v -1.3 0.5 0.1
v -1.1 0.5 0.1
v -1.3 0.5 0
v -1.1 0.5 0
v -1.3 0.7 0.1
v -1.1 0.7 0.1
v -1.19209e-07 0.7 0.1
v 0.3 0.7 0.1
v 0.7 0.7 0.1
v 0.9 0.7 0.1
v -1.3 0.7 0
v -1.1 0.7 0
v -1.19209e-07 0.7 0
v 0.3 0.7 0
v 0.7 0.7 0
v 0.9 0.7 0
v -1.4 0.8 0.1
v -1.3 0.8 0.1
v -1.1 0.8 0.1
v -1 0.8 0.1
v -0.1 0.8 0.1
v -1.19209e-07 0.8 0.1
v 0.3 0.8 0.1
v 0.4 0.8 0.1
v 0.6 0.8 0.1
v 0.7 0.8 0.1
v 0.9 0.8 0.1
v 1 0.8 0.1
v -1.4 0.8 0
v -1.3 0.8 0
v -1.1 0.8 0
v -1 0.8 0
v -0.1 0.8 0
v -1.19209e-07 0.8 0
v 0.3 0.8 0
v 0.4 0.8 0
v 0.6 0.8 0
v 0.7 0.8 0
v 0.9 0.8 0
v 1 0.8 0
v -1.8 0.9 0.1
v -1.7 0.9 0.1
v -1.6 0.9 0.1
v 1.2 0.9 0.1
v 1.3 0.9 0.1
v 1.4 0.9 0.1
v -1.6 0.9 0
v 1.2 0.9 0
v -1.8 0.9 -1.2
v -1.7 0.9 -1.2
v -1.6 0.9 -1.2
v 1.2 0.9 -1.2
v 1.3 0.9 -1.2
v 1.4 0.9 -1.2
v -1.6 1 0.1
v -1.5 1 0.1
v -1.3 1 0.1
v -1.1 1 0.1
v -1.19209e-07 1 0.1
v 0.3 1 0.1
v 0.7 1 0.1
v 0.9 1 0.1
v 1.1 1 0.1
v 1.2 1 0.1
v -1.6 1 0
v -1.5 1 0
v -1.3 1 0
v -1.2 1 0
v -1.1 1 0
v -1.19209e-07 1 0
v 0.0999999 1 0
v 0.2 1 0
v 0.3 1 0
v 0.7 1 0
v 0.8 1 0
v 0.9 1 0
v 1.1 1 0
v 1.2 1 0
v -1.5 1.1 0.1
v -1.4 1.1 0.1
v 1 1.1 0.1
v 1.1 1.1 0.1
v -1.5 1.1 0
v -1.4 1.1 0
v 1 1.1 0
v 1.1 1.1 0
v -1.4 1.2 0.1
v 1 1.2 0.1
v -1.4 1.2 0
v 1 1.2 0
v -1.2 0.3 0.1
v -1.1 0.3 0.1
v -1.2 0.3 0
v -1.1 0.3 0
v -1.4 0.5 0.1
v -1.3 0.5 0.1
v -1.1 0.5 0.1
v -1 0.5 0.1
v -1.4 0.5 0
v -1.3 0.5 0
v -1.1 0.5 0
v -1 0.5 0
v -1.3 0.6 0.1
v -1.1 0.6 0.1
v -1.3 0.6 0
v -1.1 0.6 0
v -1.3 0.8 0.1
v -1.1 0.8 0.1
v -1.19209e-07 0.8 0.1
v 0.3 0.8 0.1
v 0.7 0.8 0.1
v 0.9 0.8 0.1
v -1.3 0.8 0
v -1.2 0.8 0
v -1.1 0.8 0
v -1.19209e-07 0.8 0
v 0.0999999 0.8 0
v 0.2 0.8 0
v 0.3 0.8 0
v 0.7 0.8 0
v 0.8 0.8 0
v 0.9 0.8 0
v -1.8 1 0.1
v -1.7 1 0.1
v -1.4 1 0.1
v -1.3 1 0.1
v -1.1 1 0.1
v -1 1 0.1
v -0.1 1 0.1
v -1.19209e-07 1 0.1
v 0.3 1 0.1
v 0.4 1 0.1
v 0.6 1 0.1
v 0.7 1 0.1
v 0.9 1 0.1
v 1 1 0.1
v 1.3 1 0.1
v 1.4 1 0.1
v -1.4 1 0
v -1.3 1 0
v -1.1 1 0
v -1 1 0
v -0.1 1 0
v -1.19209e-07 1 0
v 0.3 1 0
v 0.4 1 0
v 0.6 1 0
v 0.7 1 0
v 0.9 1 0
v 1 1 0
v -1.8 1 -1.2
v -1.7 1 -1.2
v 1.3 1 -1.2
v 1.4 1 -1.2
v -1.7 1.1 0.1
v -1.6 1.1 0.1
v -1.3 1.1 0.1
v -1.1 1.1 0.1
v -1.19209e-07 1.1 0.1
v 0.3 1.1 0.1
v 0.7 1.1 0.1
v 0.9 1.1 0.1
v 1.2 1.1 0.1
v 1.3 1.1 0.1
v -1.3 1.1 0
v -1.1 1.1 0
v -1.19209e-07 1.1 0
v 0.3 1.1 0
v 0.7 1.1 0
v 0.9 1.1 0
v -1.7 1.1 -1.2
v -1.6 1.1 -1.2
v 1.2 1.1 -1.2
v 1.3 1.1 -1.2
v -1.6 1.2 0.1
v -1.5 1.2 0.1
v 1.1 1.2 0.1
v 1.2 1.2 0.1
v -1.6 1.2 -1.2
v -1.5 1.2 -1.2
v 1.1 1.2 -1.2
v 1.2 1.2 -1.2
v -1.5 1.3 0.1
v -1.4 1.3 0.1
v 1 1.3 0.1
v 1.1 1.3 0.1
v -1.5 1.3 -1.2
v -1.4 1.3 -1.2
v 1 1.3 -1.2
v 1.1 1.3 -1.2
v -1.4 1.4 0.1
v 1 1.4 0.1
v -1.4 1.4 -1.2
v 1 1.4 -1.2

# faces
f 3/2/1 2/2/1 1/2/1
f 4/2/1 2/2/1 3/2/1
f 7/2/1 6/2/1 5/2/1
f 8/2/1 6/2/1 7/2/1
f 11/6/1 10/6/1 9/6/1
f 12/6/1 10/6/1 11/6/1
f 13/1/1 12/1/1 11/1/1
f 14/1/1 12/1/1 13/1/1
f 15/6/1 14/6/1 13/6/1
f 16/6/1 14/6/1 15/6/1
f 17/1/1 16/1/1 15/1/1
f 18/1/1 16/1/1 17/1/1
f 21/2/1 20/2/1 19/2/1
f 22/2/1 20/2/1 21/2/1
f 25/2/1 24/2/1 23/2/1
f 26/2/1 24/2/1 25/2/1
f 29/4/1 28/4/1 27/4/1
f 30/4/1 29/4/1 27/4/1
f 31/4/1 29/4/1 30/4/1
f 34/4/1 33/4/1 32/4/1
f 35/4/1 33/4/1 34/4/1
f 38/2/1 37/2/1 36/2/1
f 39/2/1 37/2/1 38/2/1
f 42/4/1 41/4/1 40/4/1
f 43/4/1 41/4/1 42/4/1
f 46/4/1 45/4/1 44/4/1
f 47/4/1 45/4/1 46/4/1
f 50/4/1 49/4/1 48/4/1
f 51/4/1 49/4/1 50/4/1
f 54/8/1 53/8/1 52/8/1
f 55/8/1 53/8/1 54/8/1
f 58/4/1 57/4/1 56/4/1
f 59/4/1 57/4/1 58/4/1
f 62/4/1 61/4/1 60/4/1
f 63/4/1 61/4/1 62/4/1
f 66/4/1 65/4/1 64/4/1
f 67/4/1 66/4/1 64/4/1
f 68/4/1 66/4/1 67/4/1
f 71/4/1 70/4/1 69/4/1
f 72/4/1 70/4/1 71/4/1
f 75/4/1 74/4/1 73/4/1
f 76/4/1 74/4/1 75/4/1
f 79/4/1 78/4/1 77/4/1
f 80/4/1 78/4/1 79/4/1
f 83/4/1 82/4/1 81/4/1
f 84/4/1 83/4/1 81/4/1
f 85/4/1 83/4/1 84/4/1
f 88/4/1 87/4/1 86/4/1
f 89/4/1 87/4/1 88/4/1
f 92/4/1 91/4/1 90/4/1
f 93/4/1 91/4/1 92/4/1
f 96/4/1 95/4/1 94/4/1
f 97/4/1 95/4/1 96/4/1
f 100/4/1 99/4/1 98/4/1
f 101/4/1 100/4/1 98/4/1
f 102/4/1 100/4/1 101/4/1
f 105/4/1 104/4/1 103/4/1
f 106/4/1 104/4/1 105/4/1
f 109/4/1 108/4/1 107/4/1
f 110/4/1 108/4/1 109/4/1
f 113/4/1 112/4/1 111/4/1
f 114/4/1 112/4/1 113/4/1
f 115/4/2 116/4/2 117/4/2
f 117/4/2 116/4/2 118/4/2
f 119/4/2 120/4/2 121/4/2
f 121/4/2 120/4/2 122/4/2
f 123/4/2 124/4/2 125/4/2
f 125/4/2 124/4/2 126/4/2
f 127/4/2 128/4/2 129/4/2
f 129/4/2 128/4/2 130/4/2
f 131/4/2 132/4/2 133/4/2
f 131/4/2 133/4/2 134/4/2
f 134/4/2 133/4/2 135/4/2
f 136/4/2 137/4/2 138/4/2
f 138/4/2 137/4/2 139/4/2
f 140/4/2 141/4/2 142/4/2
f 142/4/2 141/4/2 143/4/2
f 144/4/2 145/4/2 146/4/2
f 146/4/2 145/4/2 147/4/2
f 148/4/2 149/4/2 150/4/2
f 148/4/2 150/4/2 151/4/2
f 151/4/2 150/4/2 152/4/2
f 153/4/2 154/4/2 155/4/2
f 155/4/2 154/4/2 156/4/2
f 157/4/2 158/4/2 159/4/2
f 157/4/2 159/4/2 160/4/2
f 160/4/2 159/4/2 161/4/2
f 162/4/2 163/4/2 164/4/2
f 164/4/2 163/4/2 165/4/2
f 166/4/2 167/4/2 168/4/2
f 168/4/2 167/4/2 169/4/2
f 170/4/2 171/4/2 172/4/2
f 172/4/2 171/4/2 173/4/2
f 174/4/2 175/4/2 176/4/2
f 174/4/2 176/4/2 177/4/2
f 177/4/2 176/4/2 178/4/2
f 179/4/2 180/4/2 181/4/2
f 181/4/2 180/4/2 182/4/2
f 183/4/2 184/4/2 185/4/2
f 185/4/2 184/4/2 186/4/2
f 187/4/2 188/4/2 189/4/2
f 189/4/2 188/4/2 190/4/2
f 191/2/2 192/2/2 193/2/2
f 193/2/2 192/2/2 194/2/2
f 195/2/2 196/2/2 197/2/2
f 197/2/2 196/2/2 198/2/2
f 199/6/2 200/6/2 201/6/2
f 201/6/2 200/6/2 202/6/2
f 201/1/2 202/1/2 203/1/2
f 203/1/2 202/1/2 204/1/2
f 203/6/2 204/6/2 205/6/2
f 205/6/2 204/6/2 206/6/2
f 205/1/2 206/1/2 207/1/2
f 207/1/2 206/1/2 208/1/2
f 209/2/2 210/2/2 211/2/2
f 211/2/2 210/2/2 212/2/2
f 213/2/2 214/2/2 215/2/2
f 215/2/2 214/2/2 216/2/2
f 217/2/2 218/2/2 219/2/2
f 219/2/2 218/2/2 220/2/2
f 223/2/3 222/2/3 221/2/3
f 224/2/3 222/2/3 223/2/3
f 226/4/3 224/4/3 223/4/3
f 227/2/3 225/2/3 224/2/3
f 227/4/3 224/4/3 226/4/3
f 228/2/3 225/2/3 227/2/3
f 230/4/3 228/4/3 227/4/3
f 231/2/3 229/2/3 228/2/3
f 231/4/3 228/4/3 230/4/3
f 232/2/3 229/2/3 231/2/3
f 238/4/3 232/4/3 231/4/3
f 239/2/3 233/2/3 232/2/3
f 239/4/3 232/4/3 238/4/3
f 240/2/3 233/2/3 239/2/3
f 242/4/3 235/4/3 234/4/3
f 243/4/3 235/4/3 242/4/3
f 246/4/3 237/4/3 236/4/3
f 247/4/3 237/4/3 246/4/3
f 252/8/3 250/8/3 249/8/3
f 253/8/3 250/8/3 252/8/3
f 254/4/3 244/4/3 243/4/3
f 255/4/3 244/4/3 254/4/3
f 256/4/3 246/4/3 245/4/3
f 257/4/3 246/4/3 256/4/3
f 258/4/3 248/4/3 247/4/3
f 259/4/3 248/4/3 258/4/3
f 260/4/3 253/4/3 252/4/3
f 260/4/3 252/4/3 251/4/3
f 260/4/3 254/4/3 253/4/3
f 261/4/3 254/4/3 260/4/3
f 262/4/3 258/4/3 257/4/3
f 263/4/3 258/4/3 262/4/3
f 267/4/3 265/4/3 264/4/3
f 268/4/3 265/4/3 267/4/3
f 270/4/3 267/4/3 266/4/3
f 271/4/3 267/4/3 270/4/3
f 272/4/3 269/4/3 268/4/3
f 273/4/3 269/4/3 272/4/3
f 274/4/3 272/4/3 271/4/3
f 275/4/3 272/4/3 274/4/3
f 279/4/3 277/4/3 276/4/3
f 280/4/3 277/4/3 279/4/3
f 282/4/3 279/4/3 278/4/3
f 283/4/3 279/4/3 282/4/3
f 284/4/3 281/4/3 280/4/3
f 285/4/3 281/4/3 284/4/3
f 286/4/3 284/4/3 283/4/3
f 287/4/3 284/4/3 286/4/3
f 289/4/3 240/4/3 239/4/3
f 290/2/3 241/2/3 240/2/3
f 290/4/3 240/4/3 289/4/3
f 291/2/3 241/2/3 290/2/3
f 293/4/3 289/4/3 288/4/3
f 294/2/3 290/2/3 289/2/3
f 294/4/3 289/4/3 293/4/3
f 295/2/3 290/2/3 294/2/3
f 297/4/3 293/4/3 292/4/3
f 298/2/3 294/2/3 293/2/3
f 298/4/3 293/4/3 297/4/3
f 299/2/3 294/2/3 298/2/3
f 300/4/3 297/4/3 296/4/3
f 301/2/3 298/2/3 297/2/3
f 301/4/3 297/4/3 300/4/3
f 302/2/3 298/2/3 301/2/3
f 303/2/3 301/2/3 300/2/3
f 304/2/3 301/2/3 303/2/3
f 311/1/3 309/1/3 308/1/3
f 311/1/3 310/1/3 309/1/3
f 313/6/3 306/6/3 305/6/3
f 314/1/3 307/1/3 306/1/3
f 314/6/3 306/6/3 313/6/3
f 315/6/3 308/6/3 307/6/3
f 315/1/3 307/1/3 314/1/3
f 316/1/3 312/1/3 311/1/3
f 316/1/3 311/1/3 308/1/3
f 317/1/3 312/1/3 316/1/3
f 318/1/3 312/1/3 317/1/3
f 321/6/3 308/6/3 315/6/3
f 322/6/3 308/6/3 321/6/3
f 323/1/3 316/1/3 308/1/3
f 323/6/3 308/6/3 322/6/3
f 324/1/3 316/1/3 323/1/3
f 326/1/3 319/1/3 318/1/3
f 326/1/3 318/1/3 317/1/3
f 327/1/3 319/1/3 326/1/3
f 328/3/3 321/3/3 320/3/3
f 329/3/3 321/3/3 328/3/3
f 330/7/3 325/7/3 324/7/3
f 331/5/3 326/5/3 325/5/3
f 331/7/3 325/7/3 330/7/3
f 332/5/3 326/5/3 331/5/3
f 333/3/3 328/3/3 320/3/3
f 334/3/3 328/3/3 333/3/3
f 335/3/3 321/3/3 329/3/3
f 336/3/3 321/3/3 335/3/3
f 337/6/3 323/6/3 322/6/3
f 338/6/3 323/6/3 337/6/3
f 339/5/3 331/5/3 330/5/3
f 340/7/3 332/7/3 331/7/3
f 340/5/3 331/5/3 339/5/3
f 341/7/3 332/7/3 340/7/3
f 342/1/3 319/1/3 327/1/3
f 345/6/3 338/6/3 337/6/3
f 345/6/3 337/6/3 336/6/3
f 346/1/3 339/1/3 338/1/3
f 347/1/3 342/1/3 341/1/3
f 348/1/3 346/1/3 338/1/3
f 348/1/3 347/1/3 346/1/3
f 349/1/3 342/1/3 347/1/3
f 349/1/3 347/1/3 348/1/3
f 350/1/3 348/1/3 338/1/3
f 350/6/3 338/6/3 345/6/3
f 351/1/3 348/1/3 350/1/3
f 353/1/3 342/1/3 349/1/3
f 354/1/3 319/1/3 342/1/3
f 354/1/3 342/1/3 353/1/3
f 355/5/3 352/5/3 351/5/3
f 356/7/3 353/7/3 352/7/3
f 356/5/3 352/5/3 355/5/3
f 357/7/3 353/7/3 356/7/3
f 358/7/3 356/7/3 355/7/3
f 359/5/3 357/5/3 356/5/3
f 359/7/3 356/7/3 358/7/3
f 360/5/3 357/5/3 359/5/3
f 361/6/3 350/6/3 345/6/3
f 362/5/3 359/5/3 358/5/3
f 363/7/3 360/7/3 359/7/3
f 363/5/3 359/5/3 362/5/3
f 364/7/3 360/7/3 363/7/3
f 365/1/3 319/1/3 354/1/3
f 366/1/3 362/1/3 361/1/3
f 367/1/3 365/1/3 364/1/3
f 368/1/3 366/1/3 361/1/3
f 368/1/3 367/1/3 366/1/3
f 369/1/3 365/1/3 367/1/3
f 369/1/3 367/1/3 368/1/3
f 370/1/3 368/1/3 361/1/3
f 370/6/3 361/6/3 345/6/3
f 371/1/3 368/1/3 370/1/3
f 373/1/3 365/1/3 369/1/3
f 374/1/3 319/1/3 365/1/3
f 374/1/3 365/1/3 373/1/3
f 375/5/3 372/5/3 371/5/3
f 376/7/3 373/7/3 372/7/3
f 376/5/3 372/5/3 375/5/3
f 377/7/3 373/7/3 376/7/3
f 378/6/3 370/6/3 345/6/3
f 379/7/3 376/7/3 375/7/3
f 380/5/3 377/5/3 376/5/3
f 380/7/3 376/7/3 379/7/3
f 381/5/3 377/5/3 380/5/3
f 382/1/3 319/1/3 374/1/3
f 383/1/3 379/1/3 378/1/3
f 384/1/3 382/1/3 381/1/3
f 385/1/3 319/1/3 382/1/3
f 385/1/3 382/1/3 384/1/3
f 386/1/3 319/1/3 385/1/3
f 387/1/3 384/1/3 383/1/3
f 387/1/3 385/1/3 384/1/3
f 388/1/3 385/1/3 387/1/3
f 389/6/3 344/6/3 343/6/3
f 390/1/3 345/1/3 344/1/3
f 390/6/3 344/6/3 389/6/3
f 391/6/3 378/6/3 345/6/3
f 391/1/3 345/1/3 390/1/3
f 392/1/3 383/1/3 378/1/3
f 392/6/3 378/6/3 391/6/3
f 392/1/3 387/1/3 383/1/3
f 393/1/3 387/1/3 392/1/3
f 394/1/3 387/1/3 393/1/3
f 395/2/4 396/2/4 397/2/4
f 397/2/4 396/2/4 398/2/4
f 397/4/4 398/4/4 404/4/4
f 398/2/4 399/2/4 405/2/4
f 404/4/4 398/4/4 405/4/4
f 405/2/4 399/2/4 406/2/4
f 403/1/4 404/1/4 408/1/4
f 406/2/4 407/2/4 408/2/4
f 405/1/4 406/1/4 408/1/4
f 404/1/4 405/1/4 408/1/4
f 408/2/4 407/2/4 409/2/4
f 408/1/4 409/1/4 411/1/4
f 409/2/4 410/2/4 411/2/4
f 411/2/4 410/2/4 412/2/4
f 403/1/4 408/1/4 414/1/4
f 408/1/4 411/1/4 414/1/4
f 411/1/4 412/1/4 414/1/4
f 412/2/4 413/2/4 415/2/4
f 414/1/4 412/1/4 415/1/4
f 415/2/4 413/2/4 416/2/4
f 403/1/4 414/1/4 417/1/4
f 414/2/4 415/2/4 418/2/4
f 417/1/4 414/1/4 418/1/4
f 418/2/4 415/2/4 419/2/4
f 419/2/4 415/2/4 420/2/4
f 400/6/4 401/6/4 421/6/4
f 401/1/4 402/1/4 422/1/4
f 421/6/4 401/6/4 422/6/4
f 402/6/4 403/6/4 423/6/4
f 422/1/4 402/1/4 423/1/4
f 403/1/4 417/1/4 424/1/4
f 423/6/4 403/6/4 424/6/4
f 424/1/4 417/1/4 425/1/4
f 417/2/4 418/2/4 426/2/4
f 425/1/4 417/1/4 426/1/4
f 418/2/4 419/2/4 426/2/4
f 426/2/4 419/2/4 427/2/4
f 427/2/4 419/2/4 428/2/4
f 425/4/4 426/4/4 429/4/4
f 426/2/4 427/2/4 430/2/4
f 429/4/4 426/4/4 430/4/4
f 430/2/4 427/2/4 431/2/4
f 429/2/4 430/2/4 432/2/4
f 432/2/4 430/2/4 433/2/4
f 439/4/5 435/4/5 434/4/5
f 440/4/5 435/4/5 439/4/5
f 441/4/5 437/4/5 436/4/5
f 442/4/5 437/4/5 441/4/5
f 444/6/5 439/6/5 438/6/5
f 445/1/5 440/1/5 439/1/5
f 445/6/5 439/6/5 444/6/5
f 446/3/5 441/3/5 440/3/5
f 446/1/5 440/1/5 445/1/5
f 447/1/5 442/1/5 441/1/5
f 447/3/5 441/3/5 446/3/5
f 448/6/5 443/6/5 442/6/5
f 448/1/5 442/1/5 447/1/5
f 449/6/5 443/6/5 448/6/5
f 450/6/5 444/6/5 438/6/5
f 450/1/5 447/1/5 446/1/5
f 450/1/5 449/1/5 448/1/5
f 450/1/5 448/1/5 447/1/5
f 450/1/5 446/1/5 445/1/5
f 450/1/5 445/1/5 444/1/5
f 451/6/5 443/6/5 449/6/5
f 451/1/5 449/1/5 450/1/5
f 452/6/5 450/6/5 438/6/5
f 452/6/5 451/6/5 450/6/5
f 453/6/5 443/6/5 451/6/5
f 453/6/5 451/6/5 452/6/5
f 456/8/5 455/8/5 454/8/5
f 457/8/5 455/8/5 456/8/5
f 460/4/5 459/4/5 458/4/5
f 461/4/5 459/4/5 460/4/5
f 468/4/5 463/4/5 462/4/5
f 469/4/5 463/4/5 468/4/5
f 470/4/5 465/4/5 464/4/5
f 471/4/5 465/4/5 470/4/5
f 472/4/5 467/4/5 466/4/5
f 473/4/5 467/4/5 472/4/5
f 486/4/5 475/4/5 474/4/5
f 487/4/5 475/4/5 486/4/5
f 488/4/5 477/4/5 476/4/5
f 489/4/5 477/4/5 488/4/5
f 490/4/5 479/4/5 478/4/5
f 491/4/5 479/4/5 490/4/5
f 492/4/5 481/4/5 480/4/5
f 493/4/5 481/4/5 492/4/5
f 494/4/5 483/4/5 482/4/5
f 495/4/5 483/4/5 494/4/5
f 496/4/5 485/4/5 484/4/5
f 497/4/5 485/4/5 496/4/5
f 504/4/5 500/4/5 499/4/5
f 505/4/5 502/4/5 501/4/5
f 506/2/5 499/2/5 498/2/5
f 507/4/5 504/4/5 499/4/5
f 507/2/5 499/2/5 506/2/5
f 508/4/5 504/4/5 507/4/5
f 509/4/5 502/4/5 505/4/5
f 510/2/5 503/2/5 502/2/5
f 510/4/5 502/4/5 509/4/5
f 511/2/5 503/2/5 510/2/5
f 522/4/5 513/4/5 512/4/5
f 523/4/5 513/4/5 522/4/5
f 524/4/5 515/4/5 514/4/5
f 525/4/5 515/4/5 524/4/5
f 526/4/5 515/4/5 525/4/5
f 527/4/5 517/4/5 516/4/5
f 528/4/5 517/4/5 527/4/5
f 529/4/5 517/4/5 528/4/5
f 530/4/5 517/4/5 529/4/5
f 531/4/5 519/4/5 518/4/5
f 532/4/5 519/4/5 531/4/5
f 533/4/5 519/4/5 532/4/5
f 534/4/5 521/4/5 520/4/5
f 535/4/5 521/4/5 534/4/5
f 540/4/5 537/4/5 536/4/5
f 541/4/5 537/4/5 540/4/5
f 542/4/5 539/4/5 538/4/5
f 543/4/5 539/4/5 542/4/5
f 546/4/5 545/4/5 544/4/5
f 547/4/5 545/4/5 546/4/5
f 548/8/6 549/8/6 550/8/6
f 550/8/6 549/8/6 551/8/6
f 552/4/6 553/4/6 556/4/6
f 556/4/6 553/4/6 557/4/6
f 554/4/6 555/4/6 558/4/6
f 558/4/6 555/4/6 559/4/6
f 560/4/6 561/4/6 562/4/6
f 562/4/6 561/4/6 563/4/6
f 564/4/6 565/4/6 570/4/6
f 570/4/6 565/4/6 571/4/6
f 571/4/6 565/4/6 572/4/6
f 566/4/6 567/4/6 573/4/6
f 573/4/6 567/4/6 574/4/6
f 574/4/6 567/4/6 575/4/6
f 575/4/6 567/4/6 576/4/6
f 568/4/6 569/4/6 577/4/6
f 577/4/6 569/4/6 578/4/6
f 578/4/6 569/4/6 579/4/6
f 582/4/6 583/4/6 596/4/6
f 596/4/6 583/4/6 597/4/6
f 584/4/6 585/4/6 598/4/6
f 598/4/6 585/4/6 599/4/6
f 586/4/6 587/4/6 600/4/6
f 600/4/6 587/4/6 601/4/6
f 588/4/6 589/4/6 602/4/6
f 602/4/6 589/4/6 603/4/6
f 590/4/6 591/4/6 604/4/6
f 604/4/6 591/4/6 605/4/6
f 592/4/6 593/4/6 606/4/6
f 606/4/6 593/4/6 607/4/6
f 580/2/6 581/2/6 608/2/6
f 608/2/6 581/2/6 609/2/6
f 594/2/6 595/2/6 610/2/6
f 610/2/6 595/2/6 611/2/6
f 614/4/6 615/4/6 622/4/6
f 622/4/6 615/4/6 623/4/6
f 616/4/6 617/4/6 624/4/6
f 624/4/6 617/4/6 625/4/6
f 618/4/6 619/4/6 626/4/6
f 626/4/6 619/4/6 627/4/6
f 612/2/6 613/2/6 628/2/6
f 628/2/6 613/2/6 629/2/6
f 620/2/6 621/2/6 630/2/6
f 630/2/6 621/2/6 631/2/6
f 632/2/6 633/2/6 636/2/6
f 636/2/6 633/2/6 637/2/6
f 634/2/6 635/2/6 638/2/6
f 638/2/6 635/2/6 639/2/6
f 640/2/6 641/2/6 644/2/6
f 644/2/6 641/2/6 645/2/6
f 642/2/6 643/2/6 646/2/6
f 646/2/6 643/2/6 647/2/6
f 648/2/6 649/2/6 650/2/6
f 650/2/6 649/2/6 651/2/6
