# MagicaVoxel @ Ephtracy

# group
o 

# material
mtllib poste_3.mtl
usemtl palette

# normals
vn -1 0 0
vn 1 0 0
vn 0 0 1
vn 0 0 -1
vn 0 -1 0
vn 0 1 0

# texcoords
vt 0.0175781 0.5
vt 0.986328 0.5
vt 0.990234 0.5

# verts
v 0.2 2.5 0
v 0.2 2.5 -0.4
v 0.2 2.6 0
v 0.2 2.6 -0.4
v 0.3 0 0
v 0.3 0 -0.4
v 0.3 0.1 0
v 0.3 0.1 -0.1
v 0.3 0.1 -0.3
v 0.3 0.1 -0.4
v 0.3 0.2 -0.1
v 0.3 0.2 -0.3
v 0.3 2 -0.1
v 0.3 2 -0.3
v 0.3 2.1 0
v 0.3 2.1 -0.1
v 0.3 2.1 -0.3
v 0.3 2.1 -0.4
v 0.3 2.5 0.1
v 0.3 2.5 0
v 0.3 2.5 -0.1
v 0.3 2.5 -0.3
v 0.3 2.5 -0.4
v 0.3 2.5 -0.5
v 0.3 2.6 0.1
v 0.3 2.6 0
v 0.3 2.6 -0.4
v 0.3 2.6 -0.5
v 0.4 0.1 0
v 0.4 0.1 -0.1
v 0.4 0.1 -0.3
v 0.4 0.1 -0.4
v 0.4 0.2 0
v 0.4 0.2 -0.1
v 0.4 0.2 -0.3
v 0.4 0.2 -0.4
v 0.4 2 0
v 0.4 2 -0.1
v 0.4 2 -0.3
v 0.4 2 -0.4
v 0.4 2.1 0
v 0.4 2.1 -0.1
v 0.4 2.1 -0.3
v 0.4 2.1 -0.4
v 0.4 2.5 -0.1
v 0.4 2.5 -0.3
v 0.4 2.6 -0.1
v 0.4 2.6 -0.3
v 0.4 2.7 -0.1
v 0.4 2.7 -0.3
v 0.6 2.1 0
v 0.6 2.1 -0.1
v 0.6 2.1 -0.3
v 0.6 2.1 -0.4
v 0.6 2.5 0
v 0.6 2.5 -0.1
v 0.6 2.5 -0.3
v 0.6 2.5 -0.4
v 0.4 2.1 0
v 0.4 2.1 -0.1
v 0.4 2.1 -0.3
v 0.4 2.1 -0.4
v 0.4 2.5 0
v 0.4 2.5 -0.1
v 0.4 2.5 -0.3
v 0.4 2.5 -0.4
v 0.6 0.1 0
v 0.6 0.1 -0.1
v 0.6 0.1 -0.3
v 0.6 0.1 -0.4
v 0.6 0.2 0
v 0.6 0.2 -0.1
v 0.6 0.2 -0.3
v 0.6 0.2 -0.4
v 0.6 0.6 -0.1
v 0.6 0.6 -0.3
v 0.6 0.9 -0.1
v 0.6 0.9 -0.3
v 0.6 2 0
v 0.6 2 -0.1
v 0.6 2 -0.3
v 0.6 2 -0.4
v 0.6 2.1 0
v 0.6 2.1 -0.1
v 0.6 2.1 -0.3
v 0.6 2.1 -0.4
v 0.6 2.5 -0.1
v 0.6 2.5 -0.3
v 0.6 2.6 -0.1
v 0.6 2.6 -0.3
v 0.6 2.7 -0.1
v 0.6 2.7 -0.3
v 0.7 0 0
v 0.7 0 -0.4
v 0.7 0.1 0
v 0.7 0.1 -0.1
v 0.7 0.1 -0.3
v 0.7 0.1 -0.4
v 0.7 0.2 -0.1
v 0.7 0.2 -0.3
v 0.7 2 -0.1
v 0.7 2 -0.3
v 0.7 2.1 0
v 0.7 2.1 -0.1
v 0.7 2.1 -0.3
v 0.7 2.1 -0.4
v 0.7 2.5 0.1
v 0.7 2.5 0
v 0.7 2.5 -0.1
v 0.7 2.5 -0.3
v 0.7 2.5 -0.4
v 0.7 2.5 -0.5
v 0.7 2.6 0.1
v 0.7 2.6 0
v 0.7 2.6 -0.4
v 0.7 2.6 -0.5
v 0.8 2.5 0
v 0.8 2.5 -0.4
v 0.8 2.6 0
v 0.8 2.6 -0.4
v 0.3 2.5 0.1
v 0.3 2.6 0.1
v 0.7 2.5 0.1
v 0.7 2.6 0.1
v 0.2 2.5 0
v 0.2 2.6 0
v 0.3 0 0
v 0.3 0.1 0
v 0.3 2.1 0
v 0.3 2.5 0
v 0.3 2.6 0
v 0.4 0.1 0
v 0.4 0.2 0
v 0.4 2 0
v 0.4 2.1 0
v 0.4 2.5 0
v 0.6 0.1 0
v 0.6 0.2 0
v 0.6 2 0
v 0.6 2.1 0
v 0.6 2.5 0
v 0.7 0 0
v 0.7 0.1 0
v 0.7 2.1 0
v 0.7 2.5 0
v 0.7 2.6 0
v 0.8 2.5 0
v 0.8 2.6 0
v 0.3 0.1 -0.1
v 0.3 0.2 -0.1
v 0.3 2 -0.1
v 0.3 2.1 -0.1
v 0.4 0.1 -0.1
v 0.4 0.2 -0.1
v 0.4 2 -0.1
v 0.4 2.1 -0.1
v 0.4 2.5 -0.1
v 0.4 2.6 -0.1
v 0.4 2.7 -0.1
v 0.5 0.6 -0.1
v 0.5 0.9 -0.1
v 0.6 0.1 -0.1
v 0.6 0.2 -0.1
v 0.6 0.6 -0.1
v 0.6 0.9 -0.1
v 0.6 2 -0.1
v 0.6 2.1 -0.1
v 0.6 2.5 -0.1
v 0.6 2.6 -0.1
v 0.6 2.7 -0.1
v 0.7 0.1 -0.1
v 0.7 0.2 -0.1
v 0.7 2 -0.1
v 0.7 2.1 -0.1
v 0.3 2.1 -0.3
v 0.3 2.5 -0.3
v 0.4 2.1 -0.3
v 0.4 2.5 -0.3
v 0.6 2.1 -0.3
v 0.6 2.5 -0.3
v 0.7 2.1 -0.3
v 0.7 2.5 -0.3
v 0.3 2.1 -0.1
v 0.3 2.5 -0.1
v 0.4 2.1 -0.1
v 0.4 2.5 -0.1
v 0.6 2.1 -0.1
v 0.6 2.5 -0.1
v 0.7 2.1 -0.1
v 0.7 2.5 -0.1
v 0.3 0.1 -0.3
v 0.3 0.2 -0.3
v 0.3 2 -0.3
v 0.3 2.1 -0.3
v 0.4 0.1 -0.3
v 0.4 0.2 -0.3
v 0.4 2 -0.3
v 0.4 2.1 -0.3
v 0.4 2.5 -0.3
v 0.4 2.6 -0.3
v 0.4 2.7 -0.3
v 0.5 0.6 -0.3
v 0.5 0.9 -0.3
v 0.6 0.1 -0.3
v 0.6 0.2 -0.3
v 0.6 0.6 -0.3
v 0.6 0.9 -0.3
v 0.6 2 -0.3
v 0.6 2.1 -0.3
v 0.6 2.5 -0.3
v 0.6 2.6 -0.3
v 0.6 2.7 -0.3
v 0.7 0.1 -0.3
v 0.7 0.2 -0.3
v 0.7 2 -0.3
v 0.7 2.1 -0.3
v 0.2 2.5 -0.4
v 0.2 2.6 -0.4
v 0.3 0 -0.4
v 0.3 0.1 -0.4
v 0.3 2.1 -0.4
v 0.3 2.5 -0.4
v 0.3 2.6 -0.4
v 0.4 0.1 -0.4
v 0.4 0.2 -0.4
v 0.4 2 -0.4
v 0.4 2.1 -0.4
v 0.4 2.5 -0.4
v 0.6 0.1 -0.4
v 0.6 0.2 -0.4
v 0.6 2 -0.4
v 0.6 2.1 -0.4
v 0.6 2.5 -0.4
v 0.7 0 -0.4
v 0.7 0.1 -0.4
v 0.7 2.1 -0.4
v 0.7 2.5 -0.4
v 0.7 2.6 -0.4
v 0.8 2.5 -0.4
v 0.8 2.6 -0.4
v 0.3 2.5 -0.5
v 0.3 2.6 -0.5
v 0.7 2.5 -0.5
v 0.7 2.6 -0.5
v 0.3 0 0
v 0.7 0 0
v 0.4 0 -0.1
v 0.6 0 -0.1
v 0.4 0 -0.3
v 0.6 0 -0.3
v 0.3 0 -0.4
v 0.7 0 -0.4
v 0.4 2 0
v 0.6 2 0
v 0.3 2 -0.1
v 0.4 2 -0.1
v 0.6 2 -0.1
v 0.7 2 -0.1
v 0.3 2 -0.3
v 0.4 2 -0.3
v 0.6 2 -0.3
v 0.7 2 -0.3
v 0.4 2 -0.4
v 0.6 2 -0.4
v 0.3 2.1 0
v 0.4 2.1 0
v 0.6 2.1 0
v 0.7 2.1 0
v 0.3 2.1 -0.1
v 0.4 2.1 -0.1
v 0.6 2.1 -0.1
v 0.7 2.1 -0.1
v 0.3 2.1 -0.3
v 0.4 2.1 -0.3
v 0.6 2.1 -0.3
v 0.7 2.1 -0.3
v 0.3 2.1 -0.4
v 0.4 2.1 -0.4
v 0.6 2.1 -0.4
v 0.7 2.1 -0.4
v 0.3 2.5 0.1
v 0.7 2.5 0.1
v 0.2 2.5 0
v 0.3 2.5 0
v 0.4 2.5 0
v 0.6 2.5 0
v 0.7 2.5 0
v 0.8 2.5 0
v 0.3 2.5 -0.1
v 0.4 2.5 -0.1
v 0.6 2.5 -0.1
v 0.7 2.5 -0.1
v 0.3 2.5 -0.3
v 0.4 2.5 -0.3
v 0.6 2.5 -0.3
v 0.7 2.5 -0.3
v 0.2 2.5 -0.4
v 0.3 2.5 -0.4
v 0.4 2.5 -0.4
v 0.6 2.5 -0.4
v 0.7 2.5 -0.4
v 0.8 2.5 -0.4
v 0.3 2.5 -0.5
v 0.7 2.5 -0.5
v 0.3 0.1 0
v 0.4 0.1 0
v 0.6 0.1 0
v 0.7 0.1 0
v 0.3 0.1 -0.1
v 0.4 0.1 -0.1
v 0.6 0.1 -0.1
v 0.7 0.1 -0.1
v 0.3 0.1 -0.3
v 0.4 0.1 -0.3
v 0.6 0.1 -0.3
v 0.7 0.1 -0.3
v 0.3 0.1 -0.4
v 0.4 0.1 -0.4
v 0.6 0.1 -0.4
v 0.7 0.1 -0.4
v 0.4 0.2 0
v 0.6 0.2 0
v 0.3 0.2 -0.1
v 0.4 0.2 -0.1
v 0.6 0.2 -0.1
v 0.7 0.2 -0.1
v 0.3 0.2 -0.3
v 0.4 0.2 -0.3
v 0.6 0.2 -0.3
v 0.7 0.2 -0.3
v 0.4 0.2 -0.4
v 0.6 0.2 -0.4
v 0.4 2.1 0
v 0.6 2.1 0
v 0.3 2.1 -0.1
v 0.4 2.1 -0.1
v 0.6 2.1 -0.1
v 0.7 2.1 -0.1
v 0.3 2.1 -0.3
v 0.4 2.1 -0.3
v 0.6 2.1 -0.3
v 0.7 2.1 -0.3
v 0.4 2.1 -0.4
v 0.6 2.1 -0.4
v 0.3 2.6 0.1
v 0.7 2.6 0.1
v 0.2 2.6 0
v 0.3 2.6 0
v 0.7 2.6 0
v 0.8 2.6 0
v 0.4 2.6 -0.1
v 0.6 2.6 -0.1
v 0.4 2.6 -0.3
v 0.6 2.6 -0.3
v 0.2 2.6 -0.4
v 0.3 2.6 -0.4
v 0.7 2.6 -0.4
v 0.8 2.6 -0.4
v 0.3 2.6 -0.5
v 0.7 2.6 -0.5
v 0.4 2.7 -0.1
v 0.6 2.7 -0.1
v 0.4 2.7 -0.3
v 0.6 2.7 -0.3

# faces
f 3/3/1 2/3/1 1/3/1
f 4/3/1 2/3/1 3/3/1
f 7/3/1 6/3/1 5/3/1
f 8/3/1 6/3/1 7/3/1
f 9/3/1 6/3/1 8/3/1
f 10/3/1 6/3/1 9/3/1
f 11/3/1 9/3/1 8/3/1
f 12/3/1 9/3/1 11/3/1
f 16/3/1 14/3/1 13/3/1
f 17/3/1 14/3/1 16/3/1
f 20/2/1 16/2/1 15/2/1
f 21/2/1 16/2/1 20/2/1
f 22/2/1 18/2/1 17/2/1
f 23/2/1 18/2/1 22/2/1
f 25/3/1 20/3/1 19/3/1
f 26/3/1 20/3/1 25/3/1
f 27/3/1 24/3/1 23/3/1
f 28/3/1 24/3/1 27/3/1
f 33/3/1 30/3/1 29/3/1
f 34/3/1 30/3/1 33/3/1
f 35/3/1 32/3/1 31/3/1
f 36/3/1 32/3/1 35/3/1
f 38/2/1 35/2/1 34/2/1
f 39/2/1 35/2/1 38/2/1
f 41/3/1 38/3/1 37/3/1
f 42/3/1 38/3/1 41/3/1
f 43/3/1 40/3/1 39/3/1
f 44/3/1 40/3/1 43/3/1
f 45/1/1 43/1/1 42/1/1
f 46/1/1 43/1/1 45/1/1
f 49/3/1 48/3/1 47/3/1
f 50/3/1 48/3/1 49/3/1
f 55/2/1 52/2/1 51/2/1
f 56/2/1 52/2/1 55/2/1
f 57/2/1 54/2/1 53/2/1
f 58/2/1 54/2/1 57/2/1
f 59/2/2 60/2/2 63/2/2
f 63/2/2 60/2/2 64/2/2
f 61/2/2 62/2/2 65/2/2
f 65/2/2 62/2/2 66/2/2
f 67/3/2 68/3/2 71/3/2
f 71/3/2 68/3/2 72/3/2
f 69/3/2 70/3/2 73/3/2
f 73/3/2 70/3/2 74/3/2
f 72/2/2 73/2/2 75/2/2
f 75/2/2 73/2/2 76/2/2
f 75/3/2 76/3/2 77/3/2
f 77/3/2 76/3/2 78/3/2
f 77/2/2 78/2/2 80/2/2
f 80/2/2 78/2/2 81/2/2
f 79/3/2 80/3/2 83/3/2
f 83/3/2 80/3/2 84/3/2
f 81/3/2 82/3/2 85/3/2
f 85/3/2 82/3/2 86/3/2
f 84/1/2 85/1/2 87/1/2
f 87/1/2 85/1/2 88/1/2
f 89/3/2 90/3/2 91/3/2
f 91/3/2 90/3/2 92/3/2
f 93/3/2 94/3/2 95/3/2
f 95/3/2 94/3/2 96/3/2
f 96/3/2 94/3/2 97/3/2
f 97/3/2 94/3/2 98/3/2
f 96/3/2 97/3/2 99/3/2
f 99/3/2 97/3/2 100/3/2
f 101/3/2 102/3/2 104/3/2
f 104/3/2 102/3/2 105/3/2
f 103/2/2 104/2/2 108/2/2
f 108/2/2 104/2/2 109/2/2
f 105/2/2 106/2/2 110/2/2
f 110/2/2 106/2/2 111/2/2
f 107/3/2 108/3/2 113/3/2
f 113/3/2 108/3/2 114/3/2
f 111/3/2 112/3/2 115/3/2
f 115/3/2 112/3/2 116/3/2
f 117/3/2 118/3/2 119/3/2
f 119/3/2 118/3/2 120/3/2
f 123/3/3 122/3/3 121/3/3
f 124/3/3 122/3/3 123/3/3
f 130/3/3 126/3/3 125/3/3
f 131/3/3 126/3/3 130/3/3
f 132/3/3 128/3/3 127/3/3
f 135/2/3 130/2/3 129/2/3
f 136/2/3 130/2/3 135/2/3
f 137/3/3 133/3/3 132/3/3
f 137/3/3 132/3/3 127/3/3
f 138/3/3 133/3/3 137/3/3
f 139/3/3 135/3/3 134/3/3
f 140/3/3 135/3/3 139/3/3
f 142/3/3 137/3/3 127/3/3
f 143/3/3 137/3/3 142/3/3
f 144/2/3 141/2/3 140/2/3
f 145/2/3 141/2/3 144/2/3
f 147/3/3 146/3/3 145/3/3
f 148/3/3 146/3/3 147/3/3
f 153/3/3 150/3/3 149/3/3
f 154/3/3 150/3/3 153/3/3
f 155/3/3 152/3/3 151/3/3
f 156/3/3 152/3/3 155/3/3
f 160/2/3 155/2/3 154/2/3
f 161/2/3 155/2/3 160/2/3
f 163/2/3 160/2/3 154/2/3
f 164/3/3 161/3/3 160/3/3
f 164/2/3 160/2/3 163/2/3
f 165/2/3 155/2/3 161/2/3
f 165/3/3 161/3/3 164/3/3
f 166/2/3 155/2/3 165/2/3
f 167/1/3 157/1/3 156/1/3
f 168/1/3 157/1/3 167/1/3
f 169/3/3 159/3/3 158/3/3
f 170/3/3 159/3/3 169/3/3
f 171/3/3 163/3/3 162/3/3
f 172/3/3 163/3/3 171/3/3
f 173/3/3 167/3/3 166/3/3
f 174/3/3 167/3/3 173/3/3
f 177/2/3 176/2/3 175/2/3
f 178/2/3 176/2/3 177/2/3
f 181/2/3 180/2/3 179/2/3
f 182/2/3 180/2/3 181/2/3
f 183/2/4 184/2/4 185/2/4
f 185/2/4 184/2/4 186/2/4
f 187/2/4 188/2/4 189/2/4
f 189/2/4 188/2/4 190/2/4
f 191/3/4 192/3/4 195/3/4
f 195/3/4 192/3/4 196/3/4
f 193/3/4 194/3/4 197/3/4
f 197/3/4 194/3/4 198/3/4
f 196/2/4 197/2/4 202/2/4
f 202/2/4 197/2/4 203/2/4
f 196/2/4 202/2/4 205/2/4
f 202/3/4 203/3/4 206/3/4
f 205/2/4 202/2/4 206/2/4
f 203/2/4 197/2/4 207/2/4
f 206/3/4 203/3/4 207/3/4
f 207/2/4 197/2/4 208/2/4
f 198/1/4 199/1/4 209/1/4
f 209/1/4 199/1/4 210/1/4
f 200/3/4 201/3/4 211/3/4
f 211/3/4 201/3/4 212/3/4
f 204/3/4 205/3/4 213/3/4
f 213/3/4 205/3/4 214/3/4
f 208/3/4 209/3/4 215/3/4
f 215/3/4 209/3/4 216/3/4
f 217/3/4 218/3/4 222/3/4
f 222/3/4 218/3/4 223/3/4
f 219/3/4 220/3/4 224/3/4
f 221/2/4 222/2/4 227/2/4
f 227/2/4 222/2/4 228/2/4
f 224/3/4 225/3/4 229/3/4
f 219/3/4 224/3/4 229/3/4
f 229/3/4 225/3/4 230/3/4
f 226/3/4 227/3/4 231/3/4
f 231/3/4 227/3/4 232/3/4
f 219/3/4 229/3/4 234/3/4
f 234/3/4 229/3/4 235/3/4
f 232/2/4 233/2/4 236/2/4
f 236/2/4 233/2/4 237/2/4
f 237/3/4 238/3/4 239/3/4
f 239/3/4 238/3/4 240/3/4
f 241/3/4 242/3/4 243/3/4
f 243/3/4 242/3/4 244/3/4
f 247/3/5 246/3/5 245/3/5
f 248/3/5 246/3/5 247/3/5
f 249/3/5 247/3/5 245/3/5
f 249/2/5 248/2/5 247/2/5
f 250/3/5 246/3/5 248/3/5
f 250/2/5 248/2/5 249/2/5
f 251/3/5 249/3/5 245/3/5
f 251/3/5 250/3/5 249/3/5
f 252/3/5 246/3/5 250/3/5
f 252/3/5 250/3/5 251/3/5
f 256/3/5 254/3/5 253/3/5
f 257/3/5 254/3/5 256/3/5
f 259/3/5 256/3/5 255/3/5
f 260/3/5 256/3/5 259/3/5
f 261/3/5 258/3/5 257/3/5
f 262/3/5 258/3/5 261/3/5
f 263/3/5 261/3/5 260/3/5
f 264/3/5 261/3/5 263/3/5
f 269/2/5 266/2/5 265/2/5
f 270/2/5 266/2/5 269/2/5
f 271/2/5 268/2/5 267/2/5
f 272/2/5 268/2/5 271/2/5
f 277/2/5 274/2/5 273/2/5
f 278/2/5 274/2/5 277/2/5
f 279/2/5 276/2/5 275/2/5
f 280/2/5 276/2/5 279/2/5
f 284/3/5 282/3/5 281/3/5
f 285/3/5 282/3/5 284/3/5
f 286/3/5 282/3/5 285/3/5
f 287/3/5 282/3/5 286/3/5
f 289/3/5 284/3/5 283/3/5
f 290/3/5 286/3/5 285/3/5
f 291/3/5 286/3/5 290/3/5
f 292/3/5 288/3/5 287/3/5
f 293/3/5 289/3/5 283/3/5
f 293/3/5 290/3/5 289/3/5
f 294/3/5 290/3/5 293/3/5
f 295/3/5 292/3/5 291/3/5
f 296/3/5 288/3/5 292/3/5
f 296/3/5 292/3/5 295/3/5
f 297/3/5 293/3/5 283/3/5
f 298/3/5 293/3/5 297/3/5
f 299/3/5 295/3/5 294/3/5
f 300/3/5 295/3/5 299/3/5
f 301/3/5 288/3/5 296/3/5
f 302/3/5 288/3/5 301/3/5
f 303/3/5 300/3/5 299/3/5
f 303/3/5 301/3/5 300/3/5
f 303/3/5 299/3/5 298/3/5
f 304/3/5 301/3/5 303/3/5
f 305/3/6 306/3/6 309/3/6
f 309/3/6 306/3/6 310/3/6
f 307/3/6 308/3/6 311/3/6
f 311/3/6 308/3/6 312/3/6
f 313/3/6 314/3/6 317/3/6
f 317/3/6 314/3/6 318/3/6
f 315/3/6 316/3/6 319/3/6
f 319/3/6 316/3/6 320/3/6
f 321/3/6 322/3/6 324/3/6
f 324/3/6 322/3/6 325/3/6
f 323/3/6 324/3/6 327/3/6
f 327/3/6 324/3/6 328/3/6
f 325/3/6 326/3/6 329/3/6
f 329/3/6 326/3/6 330/3/6
f 328/3/6 329/3/6 331/3/6
f 331/3/6 329/3/6 332/3/6
f 333/3/6 334/3/6 336/3/6
f 336/3/6 334/3/6 337/3/6
f 335/3/6 336/3/6 339/3/6
f 339/3/6 336/3/6 340/3/6
f 337/3/6 338/3/6 341/3/6
f 341/3/6 338/3/6 342/3/6
f 340/3/6 341/3/6 343/3/6
f 343/3/6 341/3/6 344/3/6
f 345/3/6 346/3/6 348/3/6
f 348/3/6 346/3/6 349/3/6
f 347/3/6 348/3/6 351/3/6
f 349/3/6 350/3/6 351/3/6
f 348/3/6 349/3/6 351/3/6
f 351/3/6 350/3/6 352/3/6
f 347/3/6 351/3/6 353/3/6
f 352/3/6 350/3/6 354/3/6
f 347/3/6 353/3/6 355/3/6
f 353/3/6 354/3/6 355/3/6
f 355/3/6 354/3/6 356/3/6
f 354/3/6 350/3/6 357/3/6
f 356/3/6 354/3/6 357/3/6
f 357/3/6 350/3/6 358/3/6
f 356/3/6 357/3/6 359/3/6
f 359/3/6 357/3/6 360/3/6
f 361/3/6 362/3/6 363/3/6
f 363/3/6 362/3/6 364/3/6
